<?xml version="1.0" encoding="UTF-8" standalone="no"?>
<!-- Created with Inkscape (http://www.inkscape.org/) -->

<svg
   xmlns:dc="http://purl.org/dc/elements/1.1/"
   xmlns:cc="http://creativecommons.org/ns#"
   xmlns:rdf="http://www.w3.org/1999/02/22-rdf-syntax-ns#"
   xmlns:svg="http://www.w3.org/2000/svg"
   xmlns="http://www.w3.org/2000/svg"
   xmlns:sodipodi="http://sodipodi.sourceforge.net/DTD/sodipodi-0.dtd"
   xmlns:inkscape="http://www.inkscape.org/namespaces/inkscape"
   width="140mm"
   height="140mm"
   viewBox="0 0 140 140"
   version="1.1"
   id="svg852"
   inkscape:version="0.92.3 (2405546, 2018-03-11)"
   sodipodi:docname="flatcat-logo-1.svg"
   inkscape:export-filename="/media/x75/qif/lib/nextcloud/jetpack/projects/flatcat/brand/flatcat-logo-1-1K.png"
   inkscape:export-xdpi="200"
   inkscape:export-ydpi="200">
  <defs
     id="defs846" />
  <sodipodi:namedview
     id="base"
     pagecolor="#ffffff"
     bordercolor="#666666"
     borderopacity="1.0"
     inkscape:pageopacity="0.0"
     inkscape:pageshadow="2"
     inkscape:zoom="0.35"
     inkscape:cx="-606.46566"
     inkscape:cy="173.3241"
     inkscape:document-units="mm"
     inkscape:current-layer="layer1"
     showgrid="false"
     fit-margin-top="0"
     fit-margin-left="0"
     fit-margin-right="0"
     fit-margin-bottom="0"
     inkscape:window-width="1920"
     inkscape:window-height="1056"
     inkscape:window-x="0"
     inkscape:window-y="24"
     inkscape:window-maximized="1" />
  <metadata
     id="metadata849">
    <rdf:RDF>
      <cc:Work
         rdf:about="">
        <dc:format>image/svg+xml</dc:format>
        <dc:type
           rdf:resource="http://purl.org/dc/dcmitype/StillImage" />
        <dc:title></dc:title>
      </cc:Work>
    </rdf:RDF>
  </metadata>
  <g
     inkscape:label="Layer 1"
     inkscape:groupmode="layer"
     id="layer1"
     transform="translate(-126.44285,-54.692001)">
    <path
       style="display:inline;fill:#d48900;stroke-width:0.59746671;fill-opacity:1"
       d="m 189.94465,162.94489 c -4.17126,-1.86188 -6.76551,-6.41465 -8.40245,-14.74586 -0.99121,-5.04476 -1.04573,-5.14634 -3.17391,-5.91388 -1.19096,-0.42954 -3.84575,-1.54676 -5.89955,-2.48273 -2.05379,-0.93597 -5.50056,-2.50837 -7.65948,-3.49421 -2.15892,-0.98585 -7.33448,-3.0077 -11.50124,-4.49301 -16.59342,-5.91497 -20.21921,-7.80708 -22.33308,-11.6545 -2.23971,-4.07642 0.0539,-9.13958 5.19769,-11.47389 2.93234,-1.33074 3.35305,-1.35355 22.85312,-1.23869 l 19.86576,0.11703 v -2.59332 c 0,-3.68568 2.05658,-9.728973 4.38184,-12.876103 5.56046,-7.52585 17.46546,-8.68779 24.18305,-2.3603 3.82715,3.60493 6.66132,10.24019 6.67854,15.635603 l 0.007,2.22215 19.86576,-0.13109 c 19.17135,-0.12651 19.95973,-0.0865 22.55435,1.14126 4.59567,2.17476 6.67719,5.29995 6.11652,9.18337 -0.68076,4.71539 -4.51913,7.34018 -17.46839,11.94535 -4.76478,1.6945 -9.06655,3.23919 -9.55945,3.43262 -0.49291,0.19344 -1.03062,0.39815 -1.19494,0.4549 -1.3256,0.45795 -5.01366,2.08532 -12.54679,5.5363 -2.13594,0.97848 -5.15318,2.25046 -6.705,2.82663 -2.99312,1.11129 -3.12338,1.31808 -3.75789,5.96591 -0.60944,4.46416 -3.09615,10.51681 -5.22284,12.71238 -1.03759,1.07117 -2.83947,2.21234 -4.00416,2.5359 -3.01664,0.83803 -10.16123,0.69144 -12.27456,-0.25187 z m 12.67706,-4.27679 c 3.49462,-2.52968 6.96517,-12.73237 5.457,-16.04245 -0.4903,-1.07607 -0.41456,-1.72354 0.33545,-2.86821 0.75714,-1.15555 1.16136,-4.76031 1.85098,-16.50675 0.48523,-8.26558 0.74439,-16.03546 0.57587,-17.26635 -0.71394,-5.21516 -1.05285,-6.499933 -2.43303,-9.223593 -3.46364,-6.83519 -13.40172,-8.87873 -20.25118,-4.1642 -5.03749,3.46733 -6.63996,9.528753 -5.99686,22.683503 0.84026,17.18811 1.4515,23.36884 2.46384,24.91385 0.78777,1.20229 0.83595,1.67257 0.2444,2.38534 -0.5842,0.70391 -0.58301,1.72423 0.006,4.92609 1.23795,6.73248 2.62527,9.30622 6.26565,11.624 2.44438,1.55631 9.06225,1.29046 11.48212,-0.46123 z m -23.09849,-29.90979 c -0.34477,-4.55561 -0.63206,-10.03052 -0.63843,-12.16646 -0.006,-2.13594 -0.21003,-4.19544 -0.45258,-4.57665 -0.33052,-0.51945 -5.01478,-0.56495 -18.69706,-0.18162 -15.0524,0.42172 -18.81758,0.70063 -21.45593,1.58931 -1.75992,0.5928 -3.48029,1.5326 -3.82304,2.08842 -1.42129,2.30485 3.83583,5.42769 16.91328,10.04686 9.4872,3.35102 10.05818,3.57158 14.37778,5.55366 7.4026,3.39673 14.05144,6.24487 14.22165,6.09207 0.0996,-0.0894 -0.10091,-3.88997 -0.44567,-8.44559 z m 37.00868,7.12707 c 13.87569,-6.2875 19.97846,-8.75664 30.17206,-12.20743 4.36034,-1.47608 10.02877,-4.42919 11.39095,-5.93438 1.33414,-1.4742 0.82404,-2.54014 -1.81478,-3.79234 -2.86344,-1.3588 -10.57974,-2.00965 -27.85883,-2.34985 l -14.10038,-0.27761 -0.38127,7.2644 c -0.2097,3.99542 -0.56216,9.92845 -0.78324,13.18451 -0.23851,3.51267 -0.18059,5.80031 0.14243,5.62555 0.29945,-0.16208 1.75431,-0.84279 3.23305,-1.51285 z"
       id="path945"
       inkscape:connector-curvature="0" />
  </g>
</svg>
